<svg width="33" height="41" viewBox="0 0 33 41" fill="none" xmlns="http://www.w3.org/2000/svg">
<path d="M12.9 6.95654V8.69094C12.9 9.22461 11.4547 10.203 9.05323 10.203C6.65175 10.203 5.20642 9.22461 5.20642 8.69094V6.95654C6.22927 7.46797 7.54119 7.77927 9.05323 7.77927C10.5653 7.80151 11.8994 7.4902 12.9 6.95654Z" fill="#9E9E9E"/>
<path d="M17.6318 11.1812H15.6306V18.5857H17.6318V11.1812Z" fill="#86868B"/>
<path d="M9.07238 36.0385C4.26942 36.0385 0.489319 33.8593 0.489319 31.1021V11.1787H2.49055V31.1021C2.49055 32.4807 5.29227 34.0372 9.07238 34.0372V36.0385Z" fill="#86868B"/>
<path d="M9.07238 16.1168C4.24719 16.1168 0.489319 13.9599 0.489319 11.1804C0.489319 9.60164 1.71229 8.1563 3.8247 7.24463L4.6252 9.09021C3.29104 9.66834 2.49055 10.4466 2.49055 11.2026C2.49055 12.5812 5.29227 14.1378 9.07238 14.1378C12.8525 14.1378 15.6542 12.5812 15.6542 11.2026C15.6542 10.4688 14.8537 9.66834 13.5196 9.09021L14.3201 7.24463C16.4325 8.1563 17.6554 9.60164 17.6554 11.1804C17.6332 13.9599 13.8753 16.1168 9.07238 16.1168Z" fill="#86868B"/>
<path d="M14.9002 4.28613V8.71108C14.9002 8.88897 14.878 9.06685 14.8335 9.24474C14.4333 10.9791 12.0763 12.2021 9.07442 12.2021C6.29493 12.2021 4.09358 11.157 3.4265 9.64499C3.29309 9.33368 3.22638 9.02238 3.22638 8.68884V4.28613H5.22761V8.71108C5.22761 9.24474 6.69518 10.2231 9.07442 10.2231C11.4537 10.2231 12.9212 9.24474 12.9212 8.71108V4.28613H14.9002Z" fill="#86868B"/>
<path d="M14.3861 2.79788C13.4966 1.57491 11.4954 0.774414 9.04946 0.774414C6.93705 0.774414 5.15818 1.37478 4.13532 2.33093C3.53495 2.88683 3.20142 3.5539 3.20142 4.28769C3.20142 5.39948 3.95744 6.33339 5.20265 6.97823C6.2255 7.48966 7.53742 7.80096 9.04946 7.80096C10.5393 7.80096 11.8734 7.48966 12.8963 6.97823C14.1415 6.35563 14.8975 5.39948 14.8975 4.28769C14.8975 3.73179 14.7196 3.2426 14.3861 2.79788ZM9.0717 5.79973C6.69245 5.79973 5.22488 4.82135 5.22488 4.28769C5.22488 3.75403 6.69245 2.77565 9.0717 2.77565C11.4509 2.77565 12.9185 3.75403 12.9185 4.28769C12.8963 4.82135 11.4509 5.79973 9.0717 5.79973Z" fill="#86868B"/>
<path d="M12.9 4.28841C12.9 4.82207 11.4547 5.80045 9.05323 5.80045C6.65175 5.80045 5.20642 4.82207 5.20642 4.28841C5.20642 3.75475 6.67399 2.77637 9.05323 2.77637C11.4325 2.77637 12.9 3.75475 12.9 4.28841Z" fill="#9E9E9E"/>
<path d="M18.7029 17.5859C10.9648 17.5859 4.89441 20.9436 4.89441 25.2351C4.89441 29.5266 10.9648 32.8842 18.7029 32.8842C26.441 32.8842 32.5114 29.5266 32.5114 25.2351C32.5114 20.9436 26.4632 17.5859 18.7029 17.5859ZM29.2872 27.7033C27.3304 29.5711 23.2835 30.883 18.7029 30.883C14.1223 30.883 10.0754 29.5711 8.11862 27.681C7.34036 26.9473 6.89564 26.1023 6.89564 25.2351C6.89564 22.1888 12.299 19.5872 18.7029 19.5872C25.0846 19.5872 30.5102 22.1665 30.5102 25.2351C30.5102 26.1023 30.0655 26.9473 29.2872 27.7033Z" fill="#86868B"/>
<path d="M18.6974 41.0002C13.1162 41.0002 9.31389 38.9323 8.22433 35.3523L6.06744 28.2813L7.97973 27.7031L10.1366 34.7741C10.9371 37.4647 14.0501 38.999 18.6752 38.999V41.0002H18.6974Z" fill="#86868B"/>
<path d="M18.7047 40.9995V38.9983C23.3297 38.9983 26.4427 37.464 27.2432 34.7734L29.4001 27.6802L31.3124 28.2583L29.1555 35.3293C28.0882 38.9315 24.2859 40.9995 18.7047 40.9995Z" fill="#86868B"/>
<path d="M29.2868 27.7033C27.33 29.5711 23.2831 30.883 18.7025 30.883C14.1219 30.883 10.075 29.5711 8.11823 27.6811C9.54132 25.791 13.4993 24.1011 18.7025 24.1011C23.928 24.1233 27.8859 25.791 29.2868 27.7033Z" fill="#9E9E9E"/>
</svg>
