<?xml version="1.0" standalone="no"?>
<!DOCTYPE svg PUBLIC "-//W3C//DTD SVG 20010904//EN"
 "http://www.w3.org/TR/2001/REC-SVG-20010904/DTD/svg10.dtd">
<svg version="1.0" xmlns="http://www.w3.org/2000/svg"
 width="512.000000pt" height="512.000000pt" viewBox="0 0 512.000000 512.000000"
 preserveAspectRatio="xMidYMid meet">

<g transform="translate(0.000000,512.000000) scale(0.100000,-0.100000)"
fill="#000000" stroke="none">
<path d="M638 4656 c-52 -39 -38 -94 45 -175 l55 -53 -30 -65 c-61 -129 -60
-280 2 -411 l28 -60 -23 -64 c-76 -208 -75 -467 1 -678 13 -37 24 -74 24 -81
0 -8 -83 -97 -185 -199 -194 -194 -204 -209 -170 -257 19 -26 59 -37 88 -22
12 6 97 85 188 176 l166 165 36 -49 c19 -26 58 -70 86 -98 63 -61 66 -78 13
-69 -22 3 -65 1 -98 -6 -299 -62 -411 -420 -197 -633 77 -77 206 -126 294
-112 l36 6 6 -173 c6 -191 16 -239 73 -348 85 -162 242 -275 428 -309 36 -7
210 -11 440 -11 l381 0 -71 -70 -70 -71 -59 31 c-91 46 -202 66 -295 51 -155
-24 -312 -134 -371 -258 -13 -29 -26 -52 -29 -53 -3 0 -99 94 -214 209 l-208
209 17 52 c26 79 18 207 -19 281 -35 71 -104 139 -176 175 -73 37 -201 45
-281 19 l-53 -18 -161 164 c-135 137 -164 172 -178 213 -33 97 -17 173 55 251
61 67 70 104 35 139 -43 43 -75 35 -141 -33 -85 -90 -106 -142 -106 -271 0
-185 -46 -127 743 -918 375 -376 705 -698 732 -717 73 -48 152 -68 244 -63
139 8 154 20 506 369 l311 309 64 0 65 0 245 -245 c135 -135 265 -259 290
-275 110 -70 253 -78 376 -21 65 30 107 70 766 729 659 659 699 701 730 767
30 64 33 78 33 165 0 146 -25 190 -226 395 l-158 161 55 55 c247 242 310 612
158 924 -52 108 -98 132 -149 80 -32 -32 -31 -59 4 -126 54 -100 76 -191 75
-314 -1 -94 -5 -123 -29 -195 -55 -161 -167 -292 -314 -369 -85 -44 -136 -60
-231 -71 -60 -8 -216 2 -228 15 -3 3 4 15 16 27 19 20 30 22 120 19 117 -3
197 15 293 65 189 100 309 293 311 503 2 173 -51 302 -171 422 -111 111 -234
165 -390 173 -53 3 -67 7 -82 27 -23 31 -11 39 59 39 80 0 198 -28 281 -66 87
-40 90 -40 125 -13 38 30 37 90 -1 117 -118 83 -360 129 -526 100 -68 -13 -79
-13 -90 1 -25 31 -166 128 -242 168 -184 95 -371 141 -610 150 -225 8 -415
-16 -601 -78 -62 -20 -62 -20 -120 0 -268 90 -649 107 -908 41 l-70 -17 -58
39 c-82 56 -157 80 -264 86 -98 5 -176 -11 -246 -51 l-37 -20 -71 66 c-73 70
-105 82 -142 53z m429 -264 c-6 -57 -50 -119 -107 -153 -59 -36 -100 -44 -125
-25 -19 14 -19 17 -5 58 15 42 16 43 56 40 35 -3 45 1 63 25 17 21 21 35 16
60 -3 18 -5 33 -3 33 2 0 21 7 43 14 54 19 69 7 62 -52z m229 18 c151 -86 231
-283 175 -431 -95 -252 -443 -258 -599 -11 -51 81 -50 87 12 89 153 4 319 165
333 324 3 33 11 59 17 59 6 0 34 -13 62 -30z m801 -30 c112 -15 215 -39 311
-71 l83 -28 87 29 c274 90 604 105 865 39 302 -76 527 -248 647 -494 81 -165
106 -331 76 -502 -31 -182 -96 -307 -231 -452 -47 -50 -90 -103 -95 -117 -6
-15 -10 -239 -10 -559 0 -353 -4 -552 -11 -587 -17 -80 -74 -182 -133 -235
-59 -54 -148 -98 -225 -113 -34 -6 -389 -10 -975 -10 -787 0 -930 3 -985 15
-180 43 -314 189 -341 371 -5 39 -10 297 -10 587 0 369 -3 525 -11 540 -7 12
-44 56 -83 97 -172 181 -247 364 -247 600 0 92 21 233 38 262 2 4 28 -8 57
-27 l53 -36 -14 -62 c-30 -146 -8 -308 62 -453 36 -73 62 -111 135 -188 146
-155 134 -92 140 -766 l5 -575 28 -57 c30 -62 83 -115 149 -150 l43 -23 969
-3 c1118 -3 1030 -10 1132 92 102 103 97 69 104 736 6 665 -4 602 119 728 83
86 123 141 162 228 48 106 62 182 57 324 -4 109 -9 136 -36 209 -98 261 -333
446 -647 510 -258 52 -551 30 -789 -61 l-79 -31 -126 42 c-147 47 -245 67
-391 76 -92 6 -277 -5 -345 -21 -16 -4 -24 6 -44 51 -13 31 -22 58 -19 60 3 3
45 12 94 19 108 17 324 20 431 6z m50 -285 c44 -8 133 -33 197 -55 64 -22 130
-40 146 -40 16 0 83 18 147 39 207 69 399 93 582 72 223 -26 388 -97 511 -221
121 -120 170 -236 170 -400 0 -162 -48 -278 -169 -404 -93 -98 -124 -142 -151
-220 -19 -57 -20 -83 -20 -595 0 -295 -5 -554 -10 -575 -11 -48 -36 -84 -80
-113 l-33 -23 -939 0 c-1038 0 -981 -4 -1034 66 l-29 37 -5 576 c-5 528 -7
580 -24 625 -27 74 -61 122 -145 211 -132 138 -175 238 -176 405 0 58 3 117 8
132 7 26 8 27 90 26 91 0 148 12 220 49 l49 24 158 -155 c131 -130 162 -156
187 -156 42 0 73 33 73 77 0 34 -12 49 -154 192 l-153 156 24 46 c28 53 53
140 53 186 0 37 3 38 110 53 87 12 296 4 397 -15z m2260 -275 c256 -119 325
-458 139 -676 -69 -80 -203 -144 -302 -144 l-44 0 26 53 c15 28 39 88 55 132
15 44 28 69 28 57 1 -35 62 -92 99 -92 79 0 100 76 39 137 -41 42 -84 48 -118
17 l-22 -19 6 35 c3 19 9 63 13 98 6 59 8 62 33 62 39 0 124 89 124 129 0 69
-74 94 -131 46 -34 -29 -34 -29 -48 50 -4 22 -15 64 -25 94 -11 30 -19 56 -19
59 0 12 91 -12 147 -38z m354 -1277 c154 -156 177 -184 189 -226 15 -55 10
-118 -14 -167 -9 -20 -311 -330 -713 -732 -755 -753 -714 -718 -824 -718 -81
0 -128 34 -333 239 l-189 189 309 4 c303 4 310 5 382 30 41 15 99 42 129 60
77 46 176 156 218 242 62 125 65 154 65 709 0 470 1 498 18 493 158 -48 383
-34 532 32 25 12 48 21 51 21 3 1 84 -79 180 -176z m-3783 21 c22 -6 22 -7 22
-224 l0 -217 -32 -7 c-89 -18 -194 38 -240 128 -27 53 -27 139 1 193 47 92
161 150 249 127z m-213 -1013 c77 -35 128 -119 123 -202 l-3 -49 -135 135
-135 135 55 0 c32 0 72 -8 95 -19z m1265 -652 l44 -20 -114 -115 c-131 -131
-185 -164 -267 -164 -72 0 -133 25 -133 54 0 66 93 190 175 234 84 44 208 49
295 11z"/>
<path d="M1897 3882 c-23 -25 -21 -78 3 -102 61 -61 154 27 104 98 -20 28 -83
31 -107 4z"/>
<path d="M3505 3856 c-30 -31 -32 -55 -4 -90 56 -71 166 9 112 82 -28 38 -75
41 -108 8z"/>
<path d="M3326 3559 c-36 -28 -36 -80 0 -108 15 -12 34 -21 44 -21 34 0 70 39
70 75 0 36 -36 75 -70 75 -10 0 -29 -9 -44 -21z"/>
<path d="M1773 3138 c-31 -15 -46 -68 -41 -144 5 -75 28 -107 77 -107 58 0 71
24 71 129 0 88 -1 94 -26 113 -29 23 -48 25 -81 9z"/>
<path d="M3125 3125 c-23 -22 -25 -32 -25 -107 0 -92 12 -121 55 -132 27 -7
62 7 82 33 7 10 12 50 13 99 0 75 -2 85 -25 107 -13 14 -36 25 -50 25 -14 0
-37 -11 -50 -25z"/>
<path d="M2365 3081 c-116 -30 -174 -118 -161 -244 7 -74 33 -133 82 -187 139
-154 371 -115 465 78 19 38 23 63 24 138 0 82 -3 94 -27 131 -44 66 -100 87
-238 90 -63 1 -128 -2 -145 -6z m235 -154 c22 -11 25 -19 25 -70 0 -61 -17
-93 -69 -131 -35 -27 -96 -27 -133 0 -69 50 -95 175 -43 201 33 17 187 17 220
0z"/>
<path d="M2130 2033 c-51 -19 -68 -85 -30 -123 61 -61 159 32 103 98 -20 23
-50 33 -73 25z"/>
<path d="M3357 1912 c-40 -45 -6 -122 53 -122 17 0 39 9 50 20 45 45 11 120
-53 120 -20 0 -41 -8 -50 -18z"/>
<path d="M2953 1778 c-32 -16 -46 -63 -28 -98 24 -47 72 -54 110 -15 14 13 25
36 25 50 0 30 -41 75 -67 74 -10 0 -28 -5 -40 -11z"/>
</g>
</svg>
