<svg width="24" height="24" viewBox="0 0 24 24" fill="none" xmlns="http://www.w3.org/2000/svg">
<path fill-rule="evenodd" clip-rule="evenodd" d="M3.67243 6.88373C2.99313 8.03334 2.76956 9.54025 2.98548 10.8356C3.41017 13.3834 5.61979 15.6795 7.9642 17.4158C9.10753 18.2625 10.2253 18.9342 11.0587 19.3944C11.4434 19.6068 11.7655 19.7731 11.9991 19.8898C12.2327 19.7731 12.5549 19.6068 12.9395 19.3944C13.773 18.9342 14.8908 18.2625 16.0341 17.4158C18.3785 15.6795 20.5881 13.3835 21.0128 10.8356C21.2287 9.54027 21.0051 8.03335 20.3258 6.88373C19.6717 5.77693 18.6053 5 16.9992 5C15.392 5 14.4127 5.78198 13.7991 6.60001C13.4862 7.01722 13.2742 7.43971 13.1409 7.75963C13.0748 7.91826 13.0296 8.04799 13.0019 8.13415C12.9881 8.17712 12.9788 8.20893 12.9734 8.2277L12.9685 8.24572L12.9688 8.24416C12.9686 8.24522 12.9687 8.24466 12.9685 8.24572C12.9684 8.24607 12.9685 8.2455 12.9685 8.24572C12.8558 8.68873 12.4566 9.00001 11.9991 9C11.5416 8.99999 11.1426 8.68955 11.03 8.24651C11.0299 8.2463 11.0301 8.24684 11.03 8.24651L11.0248 8.22766C11.0195 8.2089 11.0101 8.17709 10.9963 8.13412C10.9686 8.04796 10.9234 7.91823 10.8573 7.7596C10.724 7.43969 10.512 7.0172 10.1991 6.59999C9.58563 5.78198 8.60627 4.99999 6.99906 5C5.39283 5.00001 4.32642 5.77695 3.67243 6.88373ZM11.9991 8C11.029 8.24252 11.0291 8.24295 11.0292 8.24337L11.0297 8.24538L11.03 8.24651M11.9991 5.68095C11.9362 5.58783 11.8696 5.49398 11.7991 5.4C10.9126 4.218 9.39196 2.99999 6.99905 3C4.60514 3.00001 2.92154 4.22307 1.95057 5.86628C1.0049 7.46667 0.728554 9.45975 1.0127 11.1644C1.57451 14.5349 4.36491 17.2389 6.77388 19.023C8.00724 19.9364 9.20449 20.6551 10.0919 21.1452C10.5366 21.3907 10.9057 21.5801 11.1656 21.709C11.2957 21.7734 11.3985 21.8229 11.4701 21.8567C11.5058 21.8736 11.5338 21.8866 11.5534 21.8957L11.5764 21.9063L11.5832 21.9094L11.5853 21.9104C11.5856 21.9105 11.5866 21.9109 11.9991 21L11.5866 21.9109C11.8488 22.0297 12.1494 22.0297 12.4116 21.911L11.9991 21C12.4116 21.911 12.4113 21.9111 12.4116 21.911L12.4151 21.9094L12.4218 21.9063L12.4449 21.8957C12.4644 21.8866 12.4924 21.8736 12.5282 21.8567C12.5997 21.8229 12.7026 21.7734 12.8326 21.709C13.0925 21.5801 13.4617 21.3907 13.9063 21.1452C14.7938 20.6551 15.991 19.9364 17.2244 19.023C19.6334 17.2389 22.4238 14.5349 22.9856 11.1644C23.2697 9.45973 22.9933 7.46665 22.0476 5.86627C21.0766 4.22307 19.393 3 16.9992 3C14.6063 3 13.0857 4.21802 12.1992 5.39999C12.1287 5.49398 12.0621 5.58783 11.9991 5.68095Z" fill="#1A1A1A"/>
</svg>
