<?xml version="1.0" ?><!-- Uploaded to: SVG Repo, www.svgrepo.com, Generator: SVG Repo Mixer Tools -->
<svg width="24px" height="24px" viewBox="0 0 64 64" id="icons" xmlns="http://www.w3.org/2000/svg"><defs><style>.cls-1{fill:#231f20;}</style></defs><title/><circle class="cls-1" cx="45.5" cy="36.5" r="3.5"/><path class="cls-1" d="M53,16.09V13a6,6,0,0,0-5.91-6H15.82C7,7,6.11,14.23,6,17.88c0,0,0,.08,0,.12V50a6,6,0,0,0,6,6H52a6,6,0,0,0,6-6V22A6,6,0,0,0,53,16.09ZM15.82,11H47.09A2,2,0,0,1,49,13v3H10.18C10.69,12.37,12.35,11,15.82,11ZM54,50a2,2,0,0,1-2,2H12a2,2,0,0,1-2-2V20H52a2,2,0,0,1,2,2Z"/></svg>